<svg id="visual" viewBox="0 0 900 600" width="900" height="600" xmlns="http://www.w3.org/2000/svg" xmlns:xlink="http://www.w3.org/1999/xlink" version="1.1"><rect x="0" y="0" width="900" height="600" fill="#181a1e"></rect><path d="M0 414L21.5 404.8C43 395.7 86 377.3 128.8 372.3C171.7 367.3 214.3 375.7 257.2 381C300 386.3 343 388.7 385.8 383.2C428.7 377.7 471.3 364.3 514.2 359.7C557 355 600 359 642.8 373.5C685.7 388 728.3 413 771.2 426.8C814 440.7 857 443.3 878.5 444.7L900 446L900 601L878.5 601C857 601 814 601 771.2 601C728.3 601 685.7 601 642.8 601C600 601 557 601 514.2 601C471.3 601 428.7 601 385.8 601C343 601 300 601 257.2 601C214.3 601 171.7 601 128.8 601C86 601 43 601 21.5 601L0 601Z" fill="#202528"></path><path d="M0 438L21.5 440.3C43 442.7 86 447.3 128.8 448.8C171.7 450.3 214.3 448.7 257.2 450C300 451.3 343 455.7 385.8 452.5C428.7 449.3 471.3 438.7 514.2 433.5C557 428.3 600 428.7 642.8 427.5C685.7 426.3 728.3 423.7 771.2 428C814 432.3 857 443.7 878.5 449.3L900 455L900 601L878.5 601C857 601 814 601 771.2 601C728.3 601 685.7 601 642.8 601C600 601 557 601 514.2 601C471.3 601 428.7 601 385.8 601C343 601 300 601 257.2 601C214.3 601 171.7 601 128.8 601C86 601 43 601 21.5 601L0 601Z" fill="#1e2123"></path><path d="M0 500L21.5 489.7C43 479.3 86 458.7 128.8 459.8C171.7 461 214.3 484 257.2 494.2C300 504.3 343 501.7 385.8 495C428.7 488.3 471.3 477.7 514.2 468C557 458.3 600 449.7 642.8 446.5C685.7 443.3 728.3 445.7 771.2 451.2C814 456.7 857 465.3 878.5 469.7L900 474L900 601L878.5 601C857 601 814 601 771.2 601C728.3 601 685.7 601 642.8 601C600 601 557 601 514.2 601C471.3 601 428.7 601 385.8 601C343 601 300 601 257.2 601C214.3 601 171.7 601 128.8 601C86 601 43 601 21.5 601L0 601Z" fill="#1c1e1f"></path><path d="M0 496L21.5 496.3C43 496.7 86 497.3 128.8 499C171.7 500.7 214.3 503.3 257.2 508.5C300 513.7 343 521.3 385.8 523.7C428.7 526 471.3 523 514.2 519.5C557 516 600 512 642.8 511.3C685.7 510.7 728.3 513.3 771.2 516.7C814 520 857 524 878.5 526L900 528L900 601L878.5 601C857 601 814 601 771.2 601C728.3 601 685.7 601 642.8 601C600 601 557 601 514.2 601C471.3 601 428.7 601 385.8 601C343 601 300 601 257.2 601C214.3 601 171.7 601 128.8 601C86 601 43 601 21.5 601L0 601Z" fill="#1a1a1b"></path><path d="M0 572L21.5 570C43 568 86 564 128.8 558.2C171.7 552.3 214.3 544.7 257.2 543.5C300 542.3 343 547.7 385.8 550.7C428.7 553.7 471.3 554.3 514.2 557.2C557 560 600 565 642.8 560.2C685.7 555.3 728.3 540.7 771.2 536.8C814 533 857 540 878.5 543.5L900 547L900 601L878.5 601C857 601 814 601 771.2 601C728.3 601 685.7 601 642.8 601C600 601 557 601 514.2 601C471.3 601 428.7 601 385.8 601C343 601 300 601 257.2 601C214.3 601 171.7 601 128.8 601C86 601 43 601 21.5 601L0 601Z" fill="#171717"></path></svg>